#!OML:ASF F:\VICON\USERDATA\INSTALL\rory3\rory3.ASF
:FULLY-SPECIFIED
:DEGREES
1749
root 4.46383 17.0341 -5.38925 -1.84057 -47.8828 3.77982
lowerback 6.16431 -1.47074 -4.8262
upperback -1.18603 -2.23999 2.38626
thorax -4.41697 -0.955779 5.42691
lowerneck -17.7167 1.94102 -9.95726
upperneck 26.4535 5.17017 1.59136
head 11.2585 1.44568 2.9904
rclavicle -1.22501e-014 -8.74653e-015
rhumerus 5.33439 -10.0654 -60.9153
rradius 142.899
rwrist -14.9464
rhand -14.8741 24.0016
rfingers 7.12502
rthumb 11.2862 -5.67475
lclavicle -1.22501e-014 -8.74653e-015
lhumerus 2.66763 4.92322 81.5975
lradius 133.974
lwrist -0.345004
lhand 0.467259 7.77408
lfingers 7.12502
lthumb 26.0378 36.0098
rfemur -18.2343 -11.5562 12.5983
rtibia 49.5161
rfoot -30.4077 -11.3279
rtoes -3.89432
lfemur -7.15144 12.4354 -15.6917
ltibia 58.1136
lfoot -8.35965 0.365368
ltoes -34.6463
1750
root 4.50796 16.9798 -5.41184 -1.73333 -46.24 3.89462
lowerback 5.91436 -1.5815 -5.38453
upperback -1.22656 -2.42244 2.31501
thorax -4.27669 -1.03671 5.67542
lowerneck -17.8044 1.6686 -10.1553
upperneck 26.4405 4.80391 1.79126
head 11.2843 1.28888 3.04889
rclavicle -4.76089e-014 3.97569e-015
rhumerus 4.90991 -9.84928 -60.68
rradius 143.094
rwrist -13.9077
rhand -15.5411 24.053
rfingers 7.12502
rthumb 10.6428 -5.65752
lclavicle -4.76089e-014 3.97569e-015
lhumerus 2.65288 4.94566 81.8811
lradius 133.873
lwrist 0.0366781
lhand 0.49757 7.77959
lfingers 7.12502
lthumb 26.0669 36.011
rfemur -18.7614 -12.4434 12.3794
rtibia 50.6347
rfoot -31.0757 -11.6199
rtoes -4.33974
lfemur -6.133 11.501 -16.0691
ltibia 55.8549
lfoot -11.0465 1.33927
ltoes -36.5831
1751
root 4.55096 16.9265 -5.42674 -1.73513 -44.6637 4.16935
lowerback 5.53676 -1.58436 -5.71671
upperback -1.18845 -2.44073 2.0292
thorax -4.02005 -1.051 5.54617
lowerneck -17.8731 1.24024 -10.4562
upperneck 26.2639 4.18091 2.21165
head 11.2542 1.04453 3.16547
rclavicle 3.5334e-014 -1.27222e-014
rhumerus 4.15387 -9.92217 -60.3986
rradius 143.424
rwrist -12.9284
rhand -14.7388 23.7383
rfingers 7.12502
rthumb 11.4167 -5.93089
lclavicle 3.5334e-014 -1.27222e-014
lhumerus 2.53295 4.40416 82.3922
lradius 133.841
lwrist -0.0196924
lhand 0.3484 7.89959
lfingers 7.12502
lthumb 25.924 36.152
rfemur -19.262 -13.4197 11.9965
rtibia 51.716
rfoot -31.5299 -12.0606
rtoes -5.72587
lfemur -5.0169 10.5688 -16.6015
ltibia 53.6738
lfoot -14.3069 1.88776
ltoes -37.909
1752
root 4.59927 16.8829 -5.44289 -1.63305 -42.8899 4.39878
lowerback 5.15145 -1.69047 -5.90218
upperback -1.10445 -2.58447 1.66271
thorax -3.70357 -1.13594 5.25675
lowerneck -18.1092 0.864469 -10.5796
upperneck 26.1286 3.60279 2.63683
head 11.2761 0.836342 3.26529
rclavicle 1.26228e-014 -3.02153e-014
rhumerus 3.32989 -10.1675 -60.4027
rradius 143.892
rwrist -12.1042
rhand -13.9444 23.655
rfingers 7.12502
rthumb 12.1827 -5.97026
lclavicle 1.26228e-014 -3.02153e-014
lhumerus 2.55209 3.97643 82.6151
lradius 133.745
lwrist -0.112022
lhand 0.424209 7.89158
lfingers 7.12502
lthumb 25.9966 36.1333
rfemur -19.7871 -14.4922 11.6488
rtibia 52.7893
rfoot -31.9061 -12.5903
rtoes -7.31327
lfemur -4.08267 9.55899 -17.085
ltibia 51.7259
lfoot -16.9022 2.40914
ltoes -39.2445
1753
root 4.65082 16.8457 -5.45756 -1.30901 -41.091 4.43588
lowerback 4.82099 -1.78583 -5.98798
upperback -1.0676 -2.70738 1.34177
thorax -3.47355 -1.20787 4.96111
lowerneck -18.3725 0.507138 -10.5666
upperneck 26.0745 3.03588 2.98189
head 11.341 0.63222 3.31645
rclavicle 5.81445e-015 1.11319e-014
rhumerus 2.34486 -10.5334 -60.363
rradius 144.427
rwrist -11.6689
rhand -13.931 23.8141
rfingers 7.12502
rthumb 12.1956 -5.81041
lclavicle 5.81445e-015 1.11319e-014
lhumerus 2.53134 3.49018 82.871
lradius 133.599
lwrist -0.271854
lhand 0.611368 7.87135
lfingers 7.12502
lthumb 26.1758 36.0867
rfemur -20.4191 -15.5041 11.4635
rtibia 53.8991
rfoot -32.2738 -12.9813
rtoes -8.24631
lfemur -3.48001 8.64259 -17.3621
ltibia 49.9741
lfoot -18.7264 3.58374
ltoes -39.661
1754
root 4.70097 16.796 -5.47786 -1.06417 -39.6536 4.45931
lowerback 4.79006 -1.67687 -6.30573
upperback -1.11007 -2.58712 1.16268
thorax -3.51131 -1.14046 4.94505
lowerneck -18.5245 0.0777895 -10.7564
upperneck 26.0371 2.39648 3.38823
head 11.3967 0.382266 3.41122
rclavicle 1.76173e-014 3.97569e-016
rhumerus 1.26017 -10.7009 -59.8893
rradius 144.796
rwrist -11.4104
rhand -14.1466 23.7957
rfingers 7.12502
rthumb 11.9877 -5.84097
lclavicle 1.76173e-014 3.97569e-016
lhumerus 2.35189 2.95264 83.3913
lradius 133.369
lwrist -0.356569
lhand 0.721417 7.8674
lfingers 7.12502
lthumb 26.2812 36.067
rfemur -21.1237 -16.0116 11.2504
rtibia 55.1152
rfoot -32.6728 -13.0539
rtoes -7.7001
lfemur -2.90549 8.47865 -17.5002
ltibia 48.4355
lfoot -20.5781 5.09605
ltoes -40.7616
1755
root 4.75058 16.7418 -5.50181 -0.911492 -38.2787 4.58679
lowerback 5.00292 -1.62037 -6.92748
upperback -1.2741 -2.5722 1.14832
thorax -3.78167 -1.10419 5.29387
lowerneck -18.4594 -0.258761 -11.1391
upperneck 25.9677 1.95635 3.65999
head 11.3878 0.185426 3.51108
rclavicle 3.36816e-014 -6.36111e-015
rhumerus 0.342217 -10.3052 -59.4072
rradius 144.943
rwrist -11.0793
rhand -14.2935 23.8889
rfingers 7.12502
rthumb 11.8461 -5.756
lclavicle 3.36816e-014 -6.36111e-015
lhumerus 1.79845 2.77059 83.9634
lradius 133.239
lwrist -0.375394
lhand 0.786372 7.68909
lfingers 7.12502
lthumb 26.3434 35.8794
rfemur -21.8459 -16.2888 10.8829
rtibia 56.444
rfoot -32.9774 -13.0082
rtoes -6.77829
lfemur -2.58476 7.78211 -17.6559
ltibia 46.9902
lfoot -22.4785 4.46439
ltoes -39.1804
1756
root 4.79897 16.7026 -5.52656 -0.77255 -36.741 4.80323
lowerback 5.2774 -1.59455 -7.55377
upperback -1.44798 -2.61143 1.06151
thorax -4.09396 -1.09099 5.5761
lowerneck -18.3501 -0.54696 -11.4252
upperneck 25.9029 1.54647 3.93757
head 11.3721 0.0121139 3.60103
rclavicle 1.44939e-013 -3.97569e-016
rhumerus -0.669898 -10.0467 -59.1856
rradius 145.102
rwrist -10.8486
rhand -14.076 24.1878
rfingers 7.12502
rthumb 12.0558 -5.44488
lclavicle 1.44939e-013 -3.97569e-016
lhumerus 1.25126 2.62783 84.363
lradius 133.142
lwrist -0.0889707
lhand 1.0791 7.55903
lfingers 7.12502
lthumb 26.6236 35.7072
rfemur -22.5549 -16.6131 10.4012
rtibia 57.8646
rfoot -32.9556 -13.1721
rtoes -7.48028
lfemur -2.54884 7.18701 -17.8584
ltibia 45.7705
lfoot -24.0737 3.56328
ltoes -39.3103
1757
root 4.84749 16.6624 -5.55458 -0.739274 -35.2517 5.10608
lowerback 5.63274 -1.47225 -8.18583
upperback -1.5454 -2.53621 0.888198
thorax -4.39447 -1.02226 5.76296
lowerneck -18.2152 -0.780858 -11.4722
upperneck 25.6773 1.18283 4.05424
head 11.2911 -0.130262 3.5929
rclavicle 6.70898e-016 3.97569e-015
rhumerus -1.79733 -10.0553 -59.0146
rradius 145.33
rwrist -10.583
rhand -14.0275 24.1624
rfingers 7.12502
rthumb 12.1026 -5.46757
lclavicle 6.70898e-016 3.97569e-015
lhumerus 0.94884 2.30327 84.6751
lradius 132.889
lwrist 0.251292
lhand 1.43844 7.71667
lfingers 7.12502
lthumb 26.9674 35.8121
rfemur -23.2157 -16.8649 9.7762
rtibia 59.3961
rfoot -32.6602 -13.0144
rtoes -7.99649
lfemur -2.58114 6.92605 -18.0678
ltibia 44.7543
lfoot -25.4692 3.50277
ltoes -37.1606
1758
root 4.89544 16.615 -5.58782 -0.666754 -33.8646 5.34114
lowerback 5.94419 -1.37541 -8.65867
upperback -1.5554 -2.48267 0.679907
thorax -4.58329 -0.975909 5.81892
lowerneck -18.2964 -1.04758 -11.5243
upperneck 25.5251 0.810519 4.15221
head 11.2829 -0.282146 3.58215
rclavicle -1.81764e-014 -1.78906e-015
rhumerus -2.81014 -9.98982 -59.0418
rradius 145.515
rwrist -10.0929
rhand -14.4517 24.0669
rfingers 7.12502
rthumb 11.6935 -5.5868
lclavicle -1.81764e-014 -1.78906e-015
lhumerus 0.685176 2.01442 84.8496
lradius 132.578
lwrist 0.380648
lhand 1.35171 7.71766
lfingers 7.12502
lthumb 26.8844 35.8259
rfemur -23.9743 -17.0211 9.19654
rtibia 61.0397
rfoot -32.0706 -12.715
rtoes -7.59336
lfemur -2.74321 6.88476 -18.1829
ltibia 44.0674
lfoot -26.6133 4.08171
ltoes -36.5787
1759
root 4.94005 16.5715 -5.61836 -0.538478 -32.5029 5.50135
lowerback 5.99687 -1.33772 -8.80929
upperback -1.37826 -2.45882 0.296662
thorax -4.44102 -0.978244 5.49416
lowerneck -18.6375 -1.47401 -11.6374
upperneck 25.4051 0.180956 4.55688
head 11.3591 -0.516663 3.66219
rclavicle 1.42553e-013 -9.34288e-015
rhumerus -3.71331 -9.97308 -59.5288
rradius 145.685
rwrist -9.33617
rhand -14.9698 24.1257
rfingers 7.12502
rthumb 11.1939 -5.55569
lclavicle 1.42553e-013 -9.34288e-015
lhumerus 0.635155 1.64032 84.6616
lradius 132.339
lwrist 0.605433
lhand 1.33749 7.72676
lfingers 7.12502
lthumb 26.8708 35.8371
rfemur -24.8116 -17.2162 8.65804
rtibia 62.746
rfoot -30.9919 -12.631
rtoes -7.69691
lfemur -3.07507 6.74169 -18.268
ltibia 43.6416
lfoot -27.5577 3.99086
ltoes -33.1609
1760
root 4.98426 16.5321 -5.64859 -0.48367 -31.0973 5.65403
lowerback 6.43421 -1.3042 -9.04411
upperback -1.38254 -2.49054 0.0503403
thorax -4.69177 -0.978488 5.38651
lowerneck -18.737 -1.83523 -11.8863
upperneck 25.3478 -0.320424 4.86067
head 11.4057 -0.723988 3.74386
rclavicle -1.34925e-014 -2.87244e-014
rhumerus -4.82706 -9.7313 -59.7437
rradius 145.909
rwrist -8.76492
rhand -15.1177 24.1052
rfingers 7.12502
rthumb 11.0512 -5.58389
lclavicle -1.34925e-014 -2.87244e-014
lhumerus 0.0799149 1.42496 84.6969
lradius 132.265
lwrist 0.948359
lhand 1.65604 7.97821
lfingers 7.12502
lthumb 27.1756 36.0413
rfemur -25.548 -17.4238 8.0313
rtibia 64.4408
rfoot -29.6593 -12.3783
rtoes -7.0669
lfemur -3.44544 6.59503 -18.3588
ltibia 43.4223
lfoot -28.4622 3.2481
ltoes -32.5828
1761
root 5.02612 16.5007 -5.67879 -0.379679 -29.7962 5.58934
lowerback 6.94025 -1.20229 -9.05605
upperback -1.35934 -2.41729 -0.12829
thorax -4.97386 -0.931269 5.2171
lowerneck -18.7054 -2.14793 -12.1047
upperneck 25.1795 -0.754342 5.07733
head 11.3807 -0.905833 3.79305
rclavicle 5.90623e-014 -1.58034e-014
rhumerus -5.9512 -9.68553 -59.9039
rradius 146.147
rwrist -8.46121
rhand -14.6261 24.2448
rfingers 7.12502
rthumb 11.5254 -5.41833
lclavicle 5.90623e-014 -1.58034e-014
lhumerus -0.660144 1.20651 84.8964
lradius 132.174
lwrist 1.19324
lhand 1.96745 7.99159
lfingers 7.12502
lthumb 27.4735 36.0077
rfemur -26.1452 -17.3402 7.49399
rtibia 66.0179
rfoot -28.5122 -11.3061
rtoes -2.98965
lfemur -3.80415 6.56752 -18.2541
ltibia 43.3715
lfoot -29.1795 2.91229
ltoes -32.727
1762
root 5.06393 16.4806 -5.7031 -0.267652 -28.5962 5.41337
lowerback 7.38957 -1.05911 -8.9141
upperback -1.26761 -2.26465 -0.287648
thorax -5.16658 -0.856016 4.96841
lowerneck -18.5579 -2.48726 -12.4233
upperneck 24.8452 -1.22806 5.36666
head 11.2779 -1.10159 3.87513
rclavicle -6.61813e-015 3.93842e-015
rhumerus -7.02549 -9.91121 -60.074
rradius 146.433
rwrist -8.54519
rhand -13.7608 24.384
rfingers 7.12502
rthumb 12.3598 -5.23069
lclavicle -6.61813e-015 3.93842e-015
lhumerus -1.26921 0.849303 85.015
lradius 132.063
lwrist 1.20129
lhand 2.04897 8.277
lfingers 7.12502
lthumb 27.5514 36.2807
rfemur -26.6553 -17.1423 7.04486
rtibia 67.4229
rfoot -27.0922 -10.306
rtoes 0.3596
lfemur -4.13213 6.53985 -18.0815
ltibia 43.416
lfoot -29.7451 3.18532
ltoes -32.6466
